<?xml version="1.0" standalone="no"?>
<!DOCTYPE svg PUBLIC "-//W3C//DTD SVG 20010904//EN"
 "http://www.w3.org/TR/2001/REC-SVG-20010904/DTD/svg10.dtd">
<svg version="1.0" xmlns="http://www.w3.org/2000/svg"
 width="511.000000pt" height="430.000000pt" viewBox="0 0 511.000000 430.000000"
 preserveAspectRatio="xMidYMid meet">
<metadata>
Created by potrace 1.16, written by Peter Selinger 2001-2019
</metadata>
<g transform="translate(0.000000,430.000000) scale(0.100000,-0.100000)"
fill="#000000" stroke="none">
<path d="M1123 4280 c-282 -74 -532 -282 -765 -636 -188 -285 -293 -620 -343
-1089 -17 -164 -20 -573 -5 -726 67 -667 277 -1143 624 -1414 282 -220 628
-359 1006 -405 124 -15 446 -12 595 5 429 49 881 192 1345 424 402 201 658
378 900 620 310 310 509 648 601 1021 20 82 23 120 24 280 0 208 -9 259 -74
410 -113 263 -392 559 -648 689 -241 121 -613 204 -1218 271 -460 50 -660 102
-925 238 -519 267 -552 281 -722 316 -109 22 -302 20 -395 -4z"/>
</g>
</svg>
